<svg width="11" height="16" viewBox="0 0 11 16" fill="none" xmlns="http://www.w3.org/2000/svg">
<path d="M5.00214 11.6485C4.83521 11.6488 4.67343 11.5902 4.54488 11.4827L0.258102 7.88021C0.112196 7.75791 0.0204417 7.58217 0.00302325 7.39165C-0.0143952 7.20112 0.0439493 7.01143 0.165221 6.86429C0.286493 6.71715 0.460759 6.62462 0.649682 6.60705C0.838605 6.58949 1.02671 6.64832 1.17262 6.77062L5.00214 9.9985L8.83167 6.8859C8.90475 6.82605 8.98884 6.78136 9.0791 6.75439C9.16937 6.72742 9.26403 6.71871 9.35764 6.72875C9.45126 6.73879 9.54198 6.7674 9.6246 6.81291C9.70722 6.85843 9.7801 6.91997 9.83906 6.99398C9.90449 7.06806 9.95405 7.15498 9.98462 7.24927C10.0152 7.34357 10.0261 7.44321 10.0167 7.54197C10.0073 7.64073 9.97784 7.73646 9.93005 7.82318C9.88227 7.9099 9.81724 7.98573 9.73904 8.04592L5.45225 11.526C5.32002 11.6164 5.16154 11.6595 5.00214 11.6485V11.6485Z" fill="#6F6E6E"/>
</svg>
