<svg width="32" height="32" viewBox="0 0 32 32" fill="none" xmlns="http://www.w3.org/2000/svg">
<path d="M15.5044 20.937C20.0044 20.937 23.6604 16.464 23.6604 10.968C23.6604 5.472 20.0044 1 15.5044 1C14.3675 1.02174 13.2507 1.3034 12.2395 1.8234C11.2283 2.34339 10.3495 3.08794 9.67041 4C8.13103 5.99573 7.31258 8.45381 7.34839 10.974C7.34839 16.465 11.0044 20.937 15.5044 20.937ZM15.5044 2.813C19.0044 2.813 21.8484 6.472 21.8484 10.969C21.8484 15.466 19.0024 19.125 15.5044 19.125C12.0064 19.125 9.16042 15.465 9.15942 10.969C9.15842 6.473 12.0044 2.813 15.5044 2.813ZM21.8484 19.125C21.608 19.125 21.3774 19.2205 21.2074 19.3905C21.0374 19.5605 20.9419 19.7911 20.9419 20.0315C20.9419 20.2719 21.0374 20.5025 21.2074 20.6725C21.3774 20.8425 21.608 20.938 21.8484 20.938C23.5304 20.9399 25.1429 21.6088 26.3323 22.7982C27.5216 23.9875 28.1905 25.6 28.1924 27.282C28.1919 27.5221 28.0962 27.7523 27.9264 27.9221C27.7566 28.0918 27.5265 28.1875 27.2864 28.188H3.72437C3.48424 28.1875 3.25414 28.0918 3.08435 27.9221C2.91456 27.7523 2.81889 27.5221 2.81836 27.282C2.82048 25.6001 3.48956 23.9877 4.67883 22.7985C5.8681 21.6092 7.48047 20.9401 9.16235 20.938C9.40264 20.938 9.63307 20.8425 9.80298 20.6726C9.97289 20.5027 10.0684 20.2723 10.0684 20.032C10.0684 19.7917 9.97289 19.5613 9.80298 19.3914C9.63307 19.2215 9.40264 19.126 9.16235 19.126C6.99981 19.1279 4.92641 19.9875 3.39697 21.5164C1.86754 23.0453 1.00704 25.1185 1.00439 27.281C1.00519 28.0019 1.2919 28.693 1.80164 29.2027C2.31138 29.7125 3.00251 29.9992 3.72339 30H27.2864C28.0071 29.9989 28.698 29.7121 29.2075 29.2024C29.717 28.6927 30.0036 28.0017 30.0044 27.281C30.0017 25.1187 29.1416 23.0457 27.6127 21.5168C26.0837 19.9878 24.0107 19.1276 21.8484 19.125Z" fill="#E8E8E8"/>
</svg>
