<svg width="32" height="32" viewBox="0 0 32 32" fill="none" xmlns="http://www.w3.org/2000/svg">
<path d="M21.0616 20.415C22.6732 18.6549 23.6302 16.3938 23.7717 14.0115C23.9133 11.6292 23.2308 9.27079 21.8389 7.33224C20.447 5.39369 18.4304 3.9931 16.1279 3.36568C13.8254 2.73826 11.3771 2.92222 9.19412 3.88667C7.01119 4.85111 5.22658 6.53731 4.13999 8.66209C3.0534 10.7869 2.73101 13.2208 3.22695 15.5552C3.72289 17.8896 5.00696 19.9823 6.86353 21.4818C8.7201 22.9813 11.0361 23.7963 13.4226 23.79C15.6749 23.7931 17.8665 23.059 19.6626 21.7L27.4106 29.507C27.4961 29.596 27.5985 29.6671 27.7118 29.7161C27.8252 29.765 27.9471 29.7908 28.0706 29.792C28.1943 29.7924 28.3167 29.7673 28.4303 29.7182C28.5438 29.6692 28.6461 29.5973 28.7306 29.507C28.9045 29.3261 29.0016 29.0849 29.0016 28.834C29.0016 28.583 28.9045 28.3418 28.7306 28.161L21.0616 20.415ZM4.88858 13.29C4.90141 11.6047 5.41289 9.96093 6.35854 8.56591C7.30419 7.1709 8.64168 6.08707 10.2024 5.45106C11.7631 4.81505 13.4772 4.65533 15.1285 4.99204C16.7799 5.32875 18.2946 6.14682 19.4817 7.3431C20.6688 8.53939 21.4752 10.0604 21.7991 11.7142C22.1231 13.3681 21.9502 15.0809 21.3022 16.6367C20.6542 18.1925 19.5601 19.5216 18.1578 20.4564C16.7555 21.3913 15.1079 21.8901 13.4226 21.89C11.1511 21.8791 8.97677 20.9675 7.37679 19.3551C5.77681 17.7427 4.88193 15.5614 4.88858 13.29V13.29Z" fill="#E8E8E8"/>
</svg>
