<svg width="32" height="32" viewBox="0 0 32 32" fill="none" xmlns="http://www.w3.org/2000/svg">
<g clip-path="url(#clip0_188_476)">
<path d="M26.2053 29C25.5576 28.9738 24.9459 28.6948 24.5016 28.2227C24.0573 27.7506 23.8158 27.1232 23.8289 26.475C23.8419 25.8269 24.1086 25.2097 24.5717 24.7559C25.0347 24.3022 25.6571 24.048 26.3054 24.048C26.9537 24.048 27.5761 24.3022 28.0391 24.7559C28.5021 25.2097 28.7688 25.8269 28.7819 26.475C28.7949 27.1232 28.5534 27.7506 28.1091 28.2227C27.6648 28.6948 27.0531 28.9738 26.4054 29H26.2053ZM6.75732 26.32C6.75732 25.7899 6.9145 25.2718 7.20898 24.8311C7.50347 24.3903 7.92204 24.0468 8.41174 23.844C8.90145 23.6412 9.44034 23.5881 9.96021 23.6915C10.4801 23.7949 10.9576 24.0502 11.3324 24.425C11.7072 24.7998 11.9625 25.2773 12.0659 25.7972C12.1693 26.317 12.1162 26.8559 11.9133 27.3456C11.7105 27.8353 11.367 28.2539 10.9263 28.5483C10.4855 28.8428 9.96743 29 9.43738 29C9.08527 29.0003 8.73652 28.9311 8.41113 28.7966C8.08575 28.662 7.79009 28.4646 7.54102 28.2158C7.29194 27.9669 7.0944 27.6713 6.95959 27.3461C6.82479 27.0208 6.75537 26.6721 6.75537 26.32H6.75732ZM10.5574 20.686C10.2979 20.6868 10.0453 20.6024 9.8385 20.4457C9.63166 20.2891 9.48198 20.0689 9.41235 19.819L4.57935 2.36401H1.1864C0.872915 2.36401 0.572254 2.23947 0.350586 2.0178C0.128918 1.79614 0.00439453 1.49549 0.00439453 1.182C0.00439453 0.868519 0.128918 0.567873 0.350586 0.346205C0.572254 0.124537 0.872915 5.81268e-06 1.1864 5.81268e-06H5.46741C5.7269 -0.00080736 5.97944 0.0837201 6.18616 0.240568C6.39288 0.397416 6.54223 0.617883 6.61133 0.868006L11.4443 18.323H24.6223L29.0054 8.27501H14.4054C14.2472 8.27961 14.0897 8.25242 13.9423 8.19506C13.7948 8.13771 13.6603 8.05134 13.5468 7.94108C13.4332 7.83082 13.343 7.69891 13.2814 7.55315C13.2198 7.40739 13.188 7.25075 13.188 7.0925C13.188 6.93425 13.2198 6.77761 13.2814 6.63186C13.343 6.4861 13.4332 6.35418 13.5468 6.24392C13.6603 6.13366 13.7948 6.0473 13.9423 5.98994C14.0897 5.93259 14.2472 5.9054 14.4054 5.91H30.8184C31.014 5.90996 31.2066 5.95866 31.3788 6.05172C31.5509 6.14478 31.6972 6.27926 31.8043 6.44301C31.9122 6.60729 31.9778 6.79569 31.9952 6.99145C32.0127 7.1872 31.9815 7.38423 31.9044 7.565L26.4994 19.977C26.407 20.1876 26.2553 20.3668 26.0629 20.4927C25.8704 20.6186 25.6454 20.6858 25.4154 20.686H10.5574Z" fill="#E8E8E8"/>
</g>
<defs>
<clipPath id="clip0_188_476">
<rect width="31.9956" height="32" fill="white" transform="translate(0.00439453)"/>
</clipPath>
</defs>
</svg>
